<svg width="44.552" height="64.441" viewBox="0 0 44.552 64.441" xmlns="http://www.w3.org/2000/svg"><g id="svgGroup" stroke-linecap="round" fill-rule="evenodd" font-size="9pt" stroke="#6466f1" stroke-width="1mm" fill="#6466f1" style="stroke:#6466f1;stroke-width:1mm;fill:#6466f1"><path d="M 0 63.541 L 0 0.901 Q 3.113 0.545 7.719 0.277 A 244.991 244.991 0 0 1 7.83 0.271 A 151.575 151.575 0 0 1 12.183 0.086 Q 15.148 0.001 18.54 0.001 Q 26.1 0.001 31.373 1.88 A 20.343 20.343 0 0 1 36.27 4.366 Q 42.48 8.731 42.48 16.201 A 15.347 15.347 0 0 1 41.916 20.448 A 12.418 12.418 0 0 1 39.825 24.616 A 16.458 16.458 0 0 1 36.331 27.954 Q 34.722 29.111 32.712 30.063 A 28.498 28.498 0 0 1 32.13 30.331 A 27.195 27.195 0 0 1 36.302 32.185 Q 38.6 33.463 40.272 35.091 A 15.183 15.183 0 0 1 41.4 36.316 A 13.728 13.728 0 0 1 44.43 43.608 A 18.102 18.102 0 0 1 44.55 45.721 A 17.397 17.397 0 0 1 43.211 52.648 Q 41.603 56.398 38.061 59.156 A 20.681 20.681 0 0 1 37.8 59.356 Q 32.78 63.137 24.376 64.106 A 54.175 54.175 0 0 1 18.18 64.441 A 199.652 199.652 0 0 1 10.908 64.313 A 168.809 168.809 0 0 1 7.785 64.171 Q 2.88 63.901 0 63.541 Z M 18.81 34.561 L 8.55 34.561 L 8.55 56.791 A 84.764 84.764 0 0 0 14.794 57.255 A 103.645 103.645 0 0 0 18.81 57.331 A 36.206 36.206 0 0 0 23.473 57.049 Q 28.226 56.431 31.32 54.451 Q 35.82 51.571 35.82 46.081 A 10.555 10.555 0 0 0 35.035 41.941 Q 34.044 39.589 31.799 37.902 A 12.624 12.624 0 0 0 31.41 37.621 A 15.03 15.03 0 0 0 27.203 35.639 Q 25.217 35.033 22.81 34.767 A 36.559 36.559 0 0 0 18.81 34.561 Z M 8.55 7.381 L 8.55 27.901 L 18.45 27.901 A 27.594 27.594 0 0 0 22.981 27.552 Q 25.364 27.154 27.302 26.305 A 13.735 13.735 0 0 0 29.745 24.931 Q 33.93 21.961 33.93 17.281 A 9.718 9.718 0 0 0 33.323 13.771 Q 32.414 11.403 30.142 9.82 A 11.081 11.081 0 0 0 29.79 9.586 A 14.978 14.978 0 0 0 25.752 7.818 Q 22.612 6.931 18.45 6.931 A 113.622 113.622 0 0 0 15.615 6.964 A 84.324 84.324 0 0 0 13.05 7.066 Q 10.62 7.201 8.55 7.381 Z" vector-effect="non-scaling-stroke"/></g></svg>