<svg width="398.4" height="76.402" viewBox="0 0 398.4 76.402" xmlns="http://www.w3.org/2000/svg"><g id="svgGroup" stroke-linecap="round" fill-rule="evenodd" font-size="9pt" stroke="#6466f1" stroke-width="0.25mm" fill="#6466f1" style="stroke:#6466f1;stroke-width:0.25mm;fill:#6466f1"><path d="M 378.9 72.7 L 370.2 76.2 L 362.4 56.2 L 330 56.2 L 322.2 76 L 314.1 72.7 L 341.5 5.2 L 351.9 5.2 L 378.9 72.7 Z M 72 75.2 L 63 75.2 L 63 32.9 L 55 32.9 L 55 25.1 L 63 25.1 L 63 19 A 25.495 25.495 0 0 1 63.626 13.182 Q 64.734 8.452 67.802 5.203 A 16.387 16.387 0 0 1 67.9 5.1 A 16.367 16.367 0 0 1 78.304 0.125 A 22.463 22.463 0 0 1 80.7 0 A 29.982 29.982 0 0 1 84.21 0.195 Q 85.955 0.401 87.471 0.825 A 17.884 17.884 0 0 1 87.9 0.95 Q 91 1.9 93.8 3.3 L 91.1 10.9 Q 89 9.8 86.6 8.9 A 14.172 14.172 0 0 0 82.978 8.079 A 17.356 17.356 0 0 0 81.3 8 A 10.802 10.802 0 0 0 78.271 8.405 A 8.291 8.291 0 0 0 74.55 10.65 A 8.462 8.462 0 0 0 72.603 14.019 Q 72 15.92 72 18.4 L 72 25.1 L 87.4 25.1 L 87.4 32.9 L 72 32.9 L 72 75.2 Z M 0 75 L 0 5.4 A 100.907 100.907 0 0 1 1.856 5.206 Q 4.753 4.93 8.576 4.707 A 270.552 270.552 0 0 1 8.7 4.7 A 168.416 168.416 0 0 1 13.537 4.495 Q 16.008 4.424 18.745 4.406 A 285.352 285.352 0 0 1 20.6 4.4 Q 29 4.4 34.859 6.489 A 22.604 22.604 0 0 1 40.3 9.25 A 16.711 16.711 0 0 1 44.863 13.907 Q 47.054 17.34 47.191 21.801 A 19.526 19.526 0 0 1 47.2 22.4 A 17.052 17.052 0 0 1 46.573 27.12 A 13.798 13.798 0 0 1 44.25 31.75 Q 41.3 35.6 35.7 38.1 A 30.217 30.217 0 0 1 40.336 40.16 Q 43.813 42.094 46 44.75 Q 49.5 49 49.5 55.2 Q 49.5 64.515 42.29 70.128 A 22.979 22.979 0 0 1 42 70.35 A 24.681 24.681 0 0 1 34.623 74.06 Q 28.579 76 20.2 76 A 221.836 221.836 0 0 1 12.12 75.858 A 187.566 187.566 0 0 1 8.65 75.7 A 227.449 227.449 0 0 1 6.066 75.544 Q 3.259 75.357 1.195 75.138 A 65.535 65.535 0 0 1 0 75 Z M 253.4 57.3 L 253.4 32.9 L 244.4 32.9 L 244.4 25.1 L 253.6 25.1 L 255.5 8.7 L 262.4 8.7 L 262.4 25.1 L 276.8 25.1 L 276.8 32.9 L 262.4 32.9 L 262.4 58 A 21.559 21.559 0 0 0 262.568 60.796 Q 263.041 64.402 264.85 66.1 Q 267.3 68.4 270.7 68.4 Q 273.2 68.4 275.45 67.6 Q 277.7 66.8 279.6 65.7 L 282.1 72.9 A 18.546 18.546 0 0 1 280.482 73.756 Q 279.68 74.135 278.734 74.508 A 43.365 43.365 0 0 1 276.7 75.25 Q 273.3 76.4 269.6 76.4 Q 262.1 76.4 257.75 71.45 A 16.116 16.116 0 0 1 254.522 65.548 Q 253.759 63.117 253.515 60.181 A 34.777 34.777 0 0 1 253.4 57.3 Z M 225.3 27.4 L 225.3 23.2 L 233.5 23.2 L 233.5 62.6 A 12.15 12.15 0 0 0 233.602 64.236 Q 233.934 66.67 235.35 67.55 Q 237.2 68.7 239.4 68.7 L 237.5 75.7 A 17.722 17.722 0 0 1 233.235 75.228 Q 227.598 73.828 226.003 68.28 A 13.59 13.59 0 0 1 225.9 67.9 A 21.307 21.307 0 0 1 222.79 71.326 A 28.498 28.498 0 0 1 219.65 73.75 Q 215.7 76.4 209.6 76.4 Q 203.1 76.4 197.8 73.1 A 22.947 22.947 0 0 1 190.387 65.574 A 27.923 27.923 0 0 1 189.35 63.75 A 27.228 27.228 0 0 1 186.72 55.808 A 36.644 36.644 0 0 1 186.2 49.5 A 33.142 33.142 0 0 1 187.197 41.231 A 27.968 27.968 0 0 1 189.35 35.5 Q 192.5 29.3 198.05 25.65 A 22.297 22.297 0 0 1 209.245 22.044 A 27.388 27.388 0 0 1 210.8 22 A 22.584 22.584 0 0 1 215.594 22.491 A 18.703 18.703 0 0 1 218.95 23.55 A 26.002 26.002 0 0 1 223.237 25.844 A 22.103 22.103 0 0 1 225.3 27.4 Z M 96.3 58.9 L 96.3 1.2 L 105.3 1.2 L 105.3 58 A 20.644 20.644 0 0 0 105.488 60.888 Q 105.95 64.152 107.55 66 A 7.363 7.363 0 0 0 112.134 68.476 A 10.724 10.724 0 0 0 113.8 68.6 Q 115.7 68.6 117.55 68.15 A 22.192 22.192 0 0 0 119.013 67.744 Q 119.948 67.447 120.7 67.1 L 122.9 74.4 Q 121.501 75.022 119.588 75.523 A 34.978 34.978 0 0 1 118.45 75.8 A 23.816 23.816 0 0 1 115.295 76.285 A 30.514 30.514 0 0 1 112.6 76.4 A 20.862 20.862 0 0 1 107.71 75.846 A 17.544 17.544 0 0 1 104.3 74.65 A 12.683 12.683 0 0 1 98.975 69.885 A 15.856 15.856 0 0 1 98.45 69 Q 96.716 65.854 96.38 61.212 A 32.105 32.105 0 0 1 96.3 58.9 Z M 138.5 72.95 A 24.559 24.559 0 0 0 143.098 75.04 Q 147.153 76.4 151.8 76.4 Q 159.2 76.4 165.05 73 Q 170.9 69.6 174.3 63.45 A 26.255 26.255 0 0 0 176.953 56.309 A 34.184 34.184 0 0 0 177.7 49 A 34.542 34.542 0 0 0 177.215 43.092 A 25.795 25.795 0 0 0 174.25 34.65 Q 170.8 28.6 164.95 25.3 A 24.848 24.848 0 0 0 160.309 23.273 A 27.738 27.738 0 0 0 151.8 22 A 31.325 31.325 0 0 0 150.22 22.04 A 26.169 26.169 0 0 0 138.6 25.3 Q 132.7 28.6 129.3 34.7 A 26.023 26.023 0 0 0 126.551 42.29 A 35.006 35.006 0 0 0 125.9 49.2 A 34.82 34.82 0 0 0 126.165 53.554 A 27.451 27.451 0 0 0 129.25 63.35 Q 132.6 69.5 138.5 72.95 Z M 398.4 75.2 L 388.9 75.2 L 388.9 5.2 L 398.4 5.2 L 398.4 75.2 Z M 151.8 68.4 Q 159.7 68.4 164.1 63.05 A 18.802 18.802 0 0 0 167.919 54.96 A 27.105 27.105 0 0 0 168.5 49.2 Q 168.5 44 166.3 39.65 A 19.198 19.198 0 0 0 162.128 34.081 A 18.17 18.17 0 0 0 160.35 32.65 Q 156.6 30 151.8 30 A 19.249 19.249 0 0 0 146.574 30.672 A 14.037 14.037 0 0 0 139.5 35.2 A 17.878 17.878 0 0 0 135.826 42.574 Q 135.1 45.506 135.1 49 Q 135.1 54.2 137.3 58.65 A 19.437 19.437 0 0 0 140.83 63.69 A 17.627 17.627 0 0 0 143.25 65.75 Q 147 68.4 151.8 68.4 Z M 224.5 61.9 L 224.5 34 Q 221.8 32.1 218.55 30.95 Q 215.3 29.8 211.7 29.8 A 15.924 15.924 0 0 0 206.729 30.554 A 14.024 14.024 0 0 0 203.25 32.25 A 16.301 16.301 0 0 0 198.231 37.674 A 19.962 19.962 0 0 0 197.5 39.05 A 20.663 20.663 0 0 0 195.747 44.727 A 27.678 27.678 0 0 0 195.4 49.2 Q 195.4 54.8 197.5 59.15 A 17.602 17.602 0 0 0 200.606 63.696 A 15.697 15.697 0 0 0 203.3 65.95 Q 207 68.4 211.6 68.4 Q 215.4 68.4 218.8 66.55 Q 222.2 64.7 224.5 61.9 Z M 20.9 42.8 L 9.5 42.8 L 9.5 67.5 Q 14.8 68.1 20.9 68.1 Q 29.8 68.1 34.8 64.9 Q 39.8 61.7 39.8 55.6 A 11.728 11.728 0 0 0 38.928 51 Q 37.826 48.387 35.333 46.513 A 14.027 14.027 0 0 0 34.9 46.2 A 16.7 16.7 0 0 0 30.226 43.999 Q 26.303 42.8 20.9 42.8 Z M 346.2 14.6 L 333 48.2 L 359.3 48.2 L 346.2 14.6 Z M 9.5 12.6 L 9.5 35.4 L 20.5 35.4 Q 28.4 35.4 33.05 32.1 Q 37.7 28.8 37.7 23.6 A 10.798 10.798 0 0 0 37.026 19.701 Q 35.939 16.871 33.1 15.05 A 16.643 16.643 0 0 0 28.614 13.086 Q 25.125 12.1 20.5 12.1 Q 17.2 12.1 14.5 12.25 Q 11.8 12.4 9.5 12.6 Z" vector-effect="non-scaling-stroke"/></g></svg>